<?xml version="1.0" encoding="UTF-8" standalone="no"?>
<!DOCTYPE svg  PUBLIC '-//W3C//DTD SVG 1.1//EN'  'http://www.w3.org/Graphics/SVG/1.1/DTD/svg11.dtd'>
<svg xmlns="http://www.w3.org/2000/svg">
<defs>
<font id="KievitOT-ExtraBold" horiz-adv-x="778">
<font-face underline-position="-18" font-weight="750" descent="-200" panose-1="2 0 5 3 4 0 0 2 0 4" units-per-em="1000" unicode-range="U+0020-25CA" bbox="-190 -250 1278 926" x-height="490" underline-thickness="116" font-family="KievitOT" ascent="800" cap-height="666"/>
<missing-glyph horiz-adv-x="1000"/>
<glyph glyph-name=".notdef" horiz-adv-x="1000"/>
<glyph glyph-name=".null" horiz-adv-x="0"/>
<glyph glyph-name=".null" horiz-adv-x="0"/>
<glyph glyph-name="nonmarkingreturn" horiz-adv-x="333"/>
<glyph glyph-name="space" horiz-adv-x="184" unicode=" "/>
<glyph glyph-name="exclam" horiz-adv-x="313" unicode="!" d="M95 234l-27 432h177l-28 -432h-122zM156 -10q-40 0 -66.5 26.5t-26.5 63.5t26.5 63t66.5 26q41 0 67.5 -26t26.5 -63t-26.5 -63.5t-67.5 -26.5z"/>
<glyph glyph-name="quotedbl" horiz-adv-x="404" unicode='&quot;' d="M241 414l-16 252h145l-29 -252h-100zM63 414l-29 252h145l-16 -252h-100z"/>
<glyph glyph-name="numbersign" horiz-adv-x="537" unicode="#" d="M226 305h80l12 82h-80zM92 82l19 119h-87l18 108h85l11 75h-85l17 108h84l19 118h102l-18 -118h73l18 118h103l-19 -118h79l-18 -108h-77l-11 -75h78l-18 -108h-76l-17 -119h-103l18 119h-74l-18 -119h-103z"/>
<glyph glyph-name="dollar" horiz-adv-x="430" unicode="$" d="M154 -123v114q-81 9 -133 44l49 105q67 -41 128 -41q76 0 76 36q0 15 -18 24.5t-56.5 22t-61.5 23.5q-53 27 -79.5 59t-26.5 83q0 55 32 93.5t90 52.5v107h125v-101q72 -8 114 -35l-50 -103q-47 30 -109 30q-67 0 -67 -36q0 -9 6 -15.5t18 -12t24.5 -10t31 -10.5 t30.5 -11q64 -25 98.5 -58t34.5 -89q0 -126 -131 -154v-118h-125z"/>
<glyph glyph-name="percent" horiz-adv-x="909" unicode="%" d="M245 0l294 490h126l-294 -490h-126zM709 80q49 0 49 68q0 71 -50 71q-51 0 -51 -67q0 -31 12.5 -51.5t39.5 -20.5zM707 -12q-86 0 -132.5 45.5t-46.5 114.5q0 68 48 115.5t133 47.5t132 -45t47 -114q0 -68 -48 -116t-133 -48zM202 271q50 0 50 68q0 71 -51 71 q-50 0 -50 -66q0 -73 51 -73zM200 179q-85 0 -132 45.5t-47 114.5q0 68 48 115.5t133 47.5q86 0 132.5 -44.5t46.5 -113.5t-48 -117t-133 -48z"/>
<glyph glyph-name="ampersand" horiz-adv-x="678" unicode="&amp;" d="M282 104q51 0 91 28l-131 147q-55 -40 -55 -93q0 -38 26 -60t69 -22zM296 427q67 44 67 92q0 23 -15 38.5t-40 15.5q-26 0 -42 -15.5t-16 -40.5q0 -39 46 -90zM268 -12q-115 0 -176.5 51.5t-61.5 134.5q0 66 33 110.5t104 82.5q-65 79 -65 147q0 75 57 119.5t148 44.5 t142.5 -42.5t51.5 -108.5q0 -52 -34 -93t-104 -82l104 -118q28 54 38 110l128 -22q-18 -106 -81 -187l118 -135h-183l-38 43q-83 -55 -181 -55z"/>
<glyph glyph-name="quotesingle" horiz-adv-x="219" unicode="&apos;" d="M59 414l-24 252h149l-24 -252h-101z"/>
<glyph glyph-name="parenleft" horiz-adv-x="359" unicode="(" d="M215 -165q-178 190 -178 448q0 144 54 256.5t124 180.5h144q-61 -68 -109.5 -178.5t-48.5 -254.5q0 -263 158 -452h-144z"/>
<glyph glyph-name="parenright" horiz-adv-x="360" unicode=")" d="M0 -165q160 188 160 443q0 144 -47.5 255.5t-112.5 186.5h146q71 -72 124.5 -183t53.5 -255q0 -79 -17 -152t-46 -129t-56.5 -95t-58.5 -71h-146z"/>
<glyph glyph-name="asterisk" horiz-adv-x="506" unicode="*" d="M182 272l-100 70l88 99l-128 35l40 108l116 -47l-7 129h124l-7 -129l116 47l40 -108l-128 -35l88 -99l-101 -70l-70 112z"/>
<glyph glyph-name="plus" horiz-adv-x="556" unicode="+" d="M214 27v178h-173v115h173v173h129v-173h172v-115h-172v-178h-129z"/>
<glyph glyph-name="comma" horiz-adv-x="304" unicode="," d="M78 -148q41 64 41 108q0 30 -32 63t-32 71q0 36 25.5 59.5t63.5 23.5q44 0 74.5 -32.5t30.5 -87.5q0 -100 -75 -205h-96z"/>
<glyph glyph-name="hyphen" horiz-adv-x="336" unicode="-" d="M50 219v122h237v-122h-237z"/>
<glyph glyph-name="period" horiz-adv-x="304" unicode="." d="M152 -10q-41 0 -69 27t-28 67q0 39 28 66t69 27t69 -27t28 -66q0 -40 -28 -67t-69 -27z"/>
<glyph glyph-name="slash" horiz-adv-x="465" unicode="/" d="M15 -119l298 825h147l-298 -825h-147z"/>
<glyph glyph-name="zero" horiz-adv-x="590" unicode="0" d="M298 108q102 0 102 135q0 67 -26.5 103t-77.5 36q-104 0 -104 -134q0 -67 27.5 -103.5t78.5 -36.5zM296 -12q-130 0 -198.5 75.5t-68.5 179.5t69.5 181.5t199.5 77.5q67 0 119.5 -21.5t83.5 -58t46.5 -81t15.5 -93.5t-16 -94t-47.5 -82.5t-84 -60.5t-119.5 -23z"/>
<glyph glyph-name="one" horiz-adv-x="383" unicode="1" d="M164 0v359l-117 -34l-31 119l183 46h116v-490h-151z"/>
<glyph glyph-name="two" horiz-adv-x="518" unicode="2" d="M19 0v70q39 26 56.5 38t57 40.5t60.5 47.5t47 44t37.5 46t11.5 39q0 58 -74 58q-58 0 -115 -50l-72 95q84 75 212 75q100 0 156 -36.5t56 -109.5q0 -37 -16 -71t-48 -65.5t-61.5 -53.5t-72.5 -51q36 4 67 4h170v-120h-472z"/>
<glyph glyph-name="three" horiz-adv-x="467" unicode="3" d="M142 -188q-77 0 -111 8l23 121q28 -10 82 -10q66 0 105.5 25.5t39.5 73.5q0 87 -162 87v109q54 2 99.5 29.5t45.5 68.5q0 57 -75 57q-55 0 -102 -41l-70 96q83 66 207 66q94 0 145.5 -41.5t51.5 -110.5q0 -60 -40 -100.5t-92 -54.5v-2q61 -6 108 -49t47 -114 q0 -100 -82.5 -159t-219.5 -59z"/>
<glyph glyph-name="four" horiz-adv-x="617" unicode="4" d="M183 115h148v185h-2zM331 -177v177h-310v95l326 395h136v-375h102v-115h-102v-177h-152z"/>
<glyph glyph-name="five" horiz-adv-x="466" unicode="5" d="M132 -188q-64 0 -106 12l28 119q40 -11 78 -11q62 0 101.5 28.5t39.5 82.5q0 107 -144 107q-51 0 -75 -7l22 347h345v-116h-208l-7 -107q106 -3 168 -60.5t62 -155.5q0 -111 -82 -175t-222 -64z"/>
<glyph glyph-name="six" horiz-adv-x="557" unicode="6" d="M287 102q37 0 59 26.5t22 69.5q0 99 -85 99q-55 0 -93 -31v-8q-1 -66 23.5 -111t73.5 -45zM283 -12q-88 0 -146 42t-82 106.5t-24 147.5q0 176 116.5 285t312.5 109l32 -121q-62 0 -122.5 -15.5t-96.5 -44.5q-59 -46 -74 -121q48 35 123 35q90 0 148.5 -53.5t58.5 -149.5 q0 -100 -70 -160t-176 -60z"/>
<glyph glyph-name="seven" horiz-adv-x="490" unicode="7" d="M162 -202l-127 62l237 507h-251v123h429v-78z"/>
<glyph glyph-name="eight" horiz-adv-x="544" unicode="8" d="M277 412q66 43 66 89q0 30 -17.5 48.5t-50.5 18.5t-51.5 -18t-18.5 -45q0 -50 72 -93zM271 99q40 0 62 21t22 53q0 29 -22 53t-73 52q-75 -46 -75 -105q0 -34 22.5 -54t63.5 -20zM273 -12q-114 0 -178 48.5t-64 131.5q0 104 125 172q-105 59 -105 157q0 80 63.5 130.5 t157.5 50.5q104 0 164 -45t60 -127q0 -87 -114 -151q65 -34 97.5 -76.5t32.5 -104.5q0 -88 -66 -137t-173 -49z"/>
<glyph glyph-name="nine" horiz-adv-x="560" unicode="9" d="M276 194q56 0 93 31v7v9q0 64 -23.5 105.5t-71.5 41.5q-38 0 -61 -26t-23 -72q0 -48 23 -72t63 -24zM89 -184l-33 120q61 0 125.5 16.5t103.5 44.5q64 46 78 120q-51 -36 -126 -36q-91 0 -150 53t-59 149q0 100 72 159.5t178 59.5q129 0 189.5 -83.5t60.5 -212.5 q0 -180 -114.5 -285t-324.5 -105z"/>
<glyph glyph-name="colon" horiz-adv-x="306" unicode=":" d="M153 308q-41 0 -69.5 27.5t-28.5 67.5q0 39 28.5 66t69.5 27t69 -27t28 -66q0 -40 -28 -67.5t-69 -27.5zM153 -10q-41 0 -69.5 27t-28.5 67q0 39 28.5 66t69.5 27t69 -26.5t28 -66.5t-28 -67t-69 -27z"/>
<glyph glyph-name="semicolon" horiz-adv-x="306" unicode=";" d="M153 308q-41 0 -69.5 27.5t-28.5 67.5q0 39 28.5 66t69.5 27t69 -27t28 -66q0 -40 -28 -67.5t-69 -27.5zM81 -148q41 64 41 108q0 30 -32 63t-32 71q0 36 25.5 59.5t63.5 23.5q44 0 74.5 -32.5t30.5 -87.5q0 -100 -75 -205h-96z"/>
<glyph glyph-name="less" horiz-adv-x="401" unicode="&lt;" d="M286 18l-260 230l258 236l80 -82l-165 -150l168 -147z"/>
<glyph glyph-name="equal" horiz-adv-x="484" unicode="=" d="M40 303v114h404v-114h-404zM40 109v114h404v-114h-404z"/>
<glyph glyph-name="greater" horiz-adv-x="401" unicode="&gt;" d="M117 18l-80 82l165 150l-168 148l81 86l260 -230z"/>
<glyph glyph-name="question" horiz-adv-x="415" unicode="?" d="M162 -10q-40 0 -66.5 26t-26.5 64q0 37 26 63t67 26t67 -26t26 -63q0 -38 -26.5 -64t-66.5 -26zM96 232v51q0 44 16.5 70t51.5 49q32 22 46 41t14 48q0 63 -77 63q-38 0 -88 -24l-52 111q70 37 170 37q104 0 158 -48t54 -125q0 -90 -84 -149q-8 -6 -29 -20.5t-28 -20.5 t-14.5 -19t-7.5 -29v-35h-130z"/>
<glyph glyph-name="at" horiz-adv-x="827" unicode="@" d="M389 181q64 0 96 163l7 30q-21 7 -45 7q-41 0 -65 -46t-24 -110q0 -44 31 -44zM407 -101q-164 0 -261.5 95t-97.5 247q0 99 48 189t138.5 148t199.5 58q172 0 266.5 -90t94.5 -227q0 -109 -58.5 -174.5t-154.5 -65.5q-98 0 -108 78h-3q-46 -75 -130 -75q-48 0 -76.5 34 t-28.5 86q0 114 59 190.5t156 76.5q80 0 158 -28l-30 -177q-7 -42 -7 -55q0 -36 31 -36q39 0 66 37t27 102q0 114 -69 173.5t-194 59.5q-114 0 -194 -85.5t-80 -215.5q0 -122 65.5 -187t193.5 -65q78 0 144 29l35 -88q-84 -34 -190 -34z"/>
<glyph glyph-name="A" horiz-adv-x="697" unicode="A" d="M13 0l254 666h155l262 -666h-176l-39 112h-254l-39 -112h-163zM258 240h166l-49 137q-6 17 -33 116h-2q-1 -4 -6 -22t-12.5 -44t-15.5 -50z"/>
<glyph glyph-name="B" horiz-adv-x="611" unicode="B" d="M237 396h57q51 0 74.5 18.5t23.5 57.5q0 72 -94 72h-61v-148zM237 122h68q109 0 109 79q0 82 -103 82h-74v-161zM78 0v666h238q49 0 89 -8.5t73.5 -26.5t52.5 -51.5t19 -79.5q0 -124 -118 -154v-2q63 -10 104 -51t41 -109q0 -184 -264 -184h-235z"/>
<glyph glyph-name="C" horiz-adv-x="619" unicode="C" d="M387 -12q-166 0 -256.5 100t-90.5 246q0 93 38 169.5t119 125.5t193 49q122 0 204 -54l-71 -117q-62 38 -136 38q-83 0 -129.5 -58t-46.5 -149q0 -95 46.5 -155.5t132.5 -60.5q77 0 146 50l66 -113q-30 -27 -89 -49t-126 -22z"/>
<glyph glyph-name="D" horiz-adv-x="715" unicode="D" d="M240 128h62q204 0 204 210q0 103 -51 151.5t-158 48.5h-57v-410zM78 0v666h217q189 0 285 -87t96 -237q0 -152 -98.5 -247t-288.5 -95h-211z"/>
<glyph glyph-name="E" horiz-adv-x="539" unicode="E" d="M78 0v666h398v-132h-238v-129h210v-124h-210v-149h245v-132h-405z"/>
<glyph glyph-name="F" horiz-adv-x="516" unicode="F" d="M78 0v666h394v-132h-232v-147h205v-123h-205v-264h-162z"/>
<glyph glyph-name="G" horiz-adv-x="711" unicode="G" d="M398 -12q-168 0 -263 101t-95 245q0 143 100.5 243.5t271.5 100.5q139 0 222 -59l-70 -120q-67 46 -155 46q-96 0 -147 -56t-51 -151q0 -98 46.5 -159t139.5 -61q66 0 102 21v115h-116v124h270v-328q-104 -62 -255 -62z"/>
<glyph glyph-name="H" horiz-adv-x="752" unicode="H" d="M78 0v666h162v-255h273v255h160v-666h-160v279h-273v-279h-162z"/>
<glyph glyph-name="I" horiz-adv-x="338" unicode="I" d="M84 0v666h163v-666h-163z"/>
<glyph glyph-name="J" horiz-adv-x="346" unicode="J" d="M64 -209q-65 0 -111 19l25 130q22 -10 49 -10q43 0 60.5 21t17.5 72v643h163v-664q0 -102 -54.5 -156.5t-149.5 -54.5z"/>
<glyph glyph-name="K" horiz-adv-x="650" unicode="K" d="M78 0v666h162v-279l212 279h177l-238 -307l247 -359h-189l-209 306v-306h-162z"/>
<glyph glyph-name="L" horiz-adv-x="528" unicode="L" d="M81 0v666h163v-537h243v-129h-406z"/>
<glyph glyph-name="M" horiz-adv-x="891" unicode="M" d="M37 0l92 666h157l125 -397q8 -26 19 -67t12 -45h2q2 5 13 45.5t19 66.5l130 397h157l91 -666h-165l-37 314q-11 90 -11 98h-2q-20 -75 -27 -96l-98 -316h-159l-98 316q-7 24 -16 59t-10 37h-2q0 -29 -8 -99l-39 -313h-145z"/>
<glyph glyph-name="N" horiz-adv-x="752" unicode="N" d="M78 0v666h163l216 -310q15 -21 29 -43t22 -35.5t14.5 -25.5t7.5 -13h2q-4 28 -4 109v318h146v-666h-147l-237 336q-18 25 -33.5 48.5t-24 38t-10.5 17.5h-2q4 -28 4 -93v-347h-146z"/>
<glyph glyph-name="O" d="M389 117q90 0 134 60.5t44 154.5q0 95 -43 156t-131 61q-90 0 -136 -59.5t-46 -152.5q0 -95 45 -157.5t133 -62.5zM393 -12q-164 0 -258.5 101t-94.5 243q0 92 38.5 169.5t119.5 127t191 49.5q164 0 256 -99.5t92 -241.5q0 -69 -22 -131t-63.5 -111t-108.5 -78t-150 -29z " unicode="O"/>
<glyph glyph-name="P" horiz-adv-x="606" unicode="P" d="M238 347h58q60 0 88 24.5t28 76.5q0 97 -112 97h-62v-198zM77 0v666h235q117 0 189 -54.5t72 -161.5q0 -109 -74.5 -166.5t-203.5 -57.5h-57v-226h-161z"/>
<glyph glyph-name="Q" d="M389 117q90 0 134 60.5t44 154.5q0 95 -43 156t-131 61q-90 0 -136 -59.5t-46 -152.5q0 -95 45 -157.5t133 -62.5zM603 -180q-85 0 -154 38.5t-144 140.5q-124 25 -194.5 118.5t-70.5 214.5q0 92 38.5 169.5t119.5 127t191 49.5q164 0 256 -99.5t92 -241.5 q0 -120 -63.5 -213.5t-180.5 -123.5q25 -34 51.5 -47.5t65.5 -13.5q46 0 80 27l51 -104q-53 -42 -138 -42z" unicode="Q"/>
<glyph glyph-name="R" horiz-adv-x="637" unicode="R" d="M240 375h70q99 0 99 85t-105 85h-64v-170zM78 0v666h236q122 0 188 -50.5t66 -145.5q0 -76 -41.5 -121t-103.5 -60v-2q35 -25 81 -99l119 -188h-176l-118 190q-31 48 -45.5 60.5t-35.5 12.5h-8v-263h-162z"/>
<glyph glyph-name="S" horiz-adv-x="522" unicode="S" d="M238 -12q-130 0 -211 65l66 112q72 -48 140 -48q46 0 71 18.5t25 47.5q0 18 -13.5 33t-29.5 22.5t-50 22.5t-54 25q-68 33 -103.5 79.5t-35.5 122.5q0 85 63 137.5t159 52.5q123 0 201 -57l-63 -112q-66 40 -127 40q-80 0 -80 -60q0 -11 5 -21t10.5 -16.5t20 -14.5 t23.5 -12t30.5 -13.5t33.5 -14.5q81 -36 123 -79.5t42 -125.5q0 -95 -65.5 -149.5t-180.5 -54.5z"/>
<glyph glyph-name="T" horiz-adv-x="550" unicode="T" d="M194 0v534h-181v132h525v-132h-182v-534h-162z"/>
<glyph glyph-name="U" horiz-adv-x="723" unicode="U" d="M368 -12q-293 0 -293 273v405h162v-393q0 -80 30.5 -117t103.5 -37q128 0 128 147v400h148v-389q0 -141 -70.5 -215t-208.5 -74z"/>
<glyph glyph-name="V" horiz-adv-x="680" unicode="V" d="M268 0l-257 666h175l129 -379q7 -22 15 -47.5t12.5 -42.5t5.5 -20h2q7 33 32 110l125 379h162l-248 -666h-153z"/>
<glyph glyph-name="W" horiz-adv-x="926" unicode="W" d="M194 0l-179 666h172l75 -317q24 -100 24 -124h2q0 18 27 130l79 311h158l77 -310q26 -112 26 -131h3q0 2 3 20.5t9 50t12 55.5l77 315h153l-181 -666h-149l-86 343q-26 102 -26 123h-2q0 -17 -29 -123l-96 -343h-149z"/>
<glyph glyph-name="X" horiz-adv-x="632" unicode="X" d="M18 0l210 341l-202 325h184l114 -192l107 192h162l-191 -322l213 -344h-182l-128 214l-125 -214h-162z"/>
<glyph glyph-name="Y" horiz-adv-x="612" unicode="Y" d="M229 0v251l-220 415h179l129 -265h1l128 265h157l-212 -415v-251h-162z"/>
<glyph glyph-name="Z" horiz-adv-x="574" unicode="Z" d="M46 0v104l286 431h-275v131h471v-102l-288 -433h296v-131h-490z"/>
<glyph glyph-name="bracketleft" horiz-adv-x="353" unicode="[" d="M61 -161v881h265v-112h-120v-657h120v-112h-265z"/>
<glyph glyph-name="backslash" horiz-adv-x="465" unicode="\" d="M318 -161l-318 881h147l318 -881h-147z"/>
<glyph glyph-name="bracketright" horiz-adv-x="353" unicode="]" d="M26 -161v112h121v657h-121v112h266v-881h-266z"/>
<glyph glyph-name="asciicircum" horiz-adv-x="584" unicode="^" d="M39 288l200 378h105l200 -378h-140l-112 221l-112 -221h-141z"/>
<glyph glyph-name="underscore" horiz-adv-x="445" unicode="_" d="M-1 -192v116h447v-116h-447z"/>
<glyph glyph-name="grave" horiz-adv-x="500" unicode="`" d="M261 541l-142 138h192l80 -138h-130z"/>
<glyph glyph-name="a" horiz-adv-x="512" unicode="a" d="M229 95q44 0 77 35v82h-16q-116 0 -116 -71q0 -22 15.5 -34t39.5 -12zM180 -12q-65 0 -107.5 37.5t-42.5 102.5q0 88 75 131.5t185 43.5h16v23q0 30 -16 43.5t-58 13.5q-67 0 -123 -44l-64 91q81 72 206 72q108 0 157.5 -44t49.5 -143v-160q0 -89 14 -155h-149 q-7 21 -9 51q-50 -63 -134 -63z"/>
<glyph glyph-name="b" horiz-adv-x="563" unicode="b" d="M271 106q104 0 104 143q0 134 -91 134q-45 0 -74 -34v-234q22 -9 61 -9zM271 -12q-127 0 -213 39v693h152v-269q51 51 119 51q94 0 150.5 -64t56.5 -189t-74 -193t-191 -68z"/>
<glyph glyph-name="c" horiz-adv-x="464" unicode="c" d="M290 -12q-121 0 -192 69t-71 187q0 121 73.5 189.5t193.5 68.5q93 0 150 -37l-46 -103q-42 26 -98 26q-53 0 -82.5 -37t-29.5 -102q0 -67 29.5 -106t85.5 -39q52 0 101 26l44 -100q-69 -42 -158 -42z"/>
<glyph glyph-name="d" horiz-adv-x="567" unicode="d" d="M277 107q47 0 81 43v205q-31 29 -75 29q-45 0 -69.5 -36.5t-24.5 -105.5q0 -135 88 -135zM228 -13q-93 0 -146.5 67t-53.5 189q0 116 62 187.5t158 71.5q67 0 110 -33v251h152v-568q0 -88 15 -152h-149q-9 21 -11 52q-55 -65 -137 -65z"/>
<glyph glyph-name="e" horiz-adv-x="528" unicode="e" d="M187 304h161q-2 91 -74 91q-73 0 -87 -91zM291 -12q-124 0 -194 69.5t-70 189.5q0 116 71.5 185.5t177.5 69.5q107 0 163 -64t56 -183q0 -33 -2 -51h-302q12 -105 115 -105q60 0 125 31l47 -95q-84 -47 -187 -47z"/>
<glyph glyph-name="f" horiz-adv-x="381" unicode="f" d="M87 0v378h-71v112h71v43q0 90 52 144.5t145 54.5q88 0 130 -26l-34 -112q-31 14 -69 14q-72 0 -72 -87v-31h114v-112h-114v-378h-152z"/>
<glyph glyph-name="g" horiz-adv-x="547" unicode="g" d="M256 243q37 0 58 21t21 60t-21 60.5t-58 21.5t-57.5 -21.5t-20.5 -60.5t20.5 -60t57.5 -21zM254 -141q55 0 86 18.5t31 45.5q0 19 -12 28.5t-26 11.5t-52 5q-16 1 -25 2q-33 2 -59 6q-29 -23 -29 -56q0 -61 86 -61zM244 -239q-221 0 -221 128q0 74 82 118q-43 27 -43 75 q0 63 56 97q-86 47 -86 145q0 81 59.5 129.5t163.5 48.5q51 0 92 -12h183v-97h-65q16 -34 16 -69q0 -81 -56.5 -129t-160.5 -48q-27 0 -59 5q-14 -12 -14 -25q0 -19 22 -25t86 -9q31 -2 44.5 -2.5t42.5 -4.5t43.5 -9.5t35.5 -17t31 -26.5t18 -38t8 -53q0 -80 -75.5 -130.5 t-202.5 -50.5z"/>
<glyph glyph-name="h" horiz-adv-x="565" unicode="h" d="M58 0v720h152v-286q65 68 151 68q77 0 112.5 -43.5t35.5 -117.5v-341h-152v310q0 34 -13.5 50t-45.5 16q-47 0 -88 -53v-323h-152z"/>
<glyph glyph-name="i" horiz-adv-x="290" unicode="i" d="M68 0v490h154v-490h-154zM145 544q-39 0 -64.5 25.5t-25.5 61.5t25.5 61.5t64.5 25.5t64.5 -25.5t25.5 -61.5t-25.5 -61.5t-64.5 -25.5z"/>
<glyph glyph-name="j" horiz-adv-x="287" unicode="j" d="M143 544q-39 0 -64.5 25.5t-25.5 61.5t25.5 61.5t64.5 25.5t65 -25.5t26 -61.5t-26 -61.5t-65 -25.5zM43 -234q-60 0 -99 13l26 117q25 -7 40 -7q33 0 45 22t12 79v500h154v-515q0 -209 -178 -209z"/>
<glyph glyph-name="k" horiz-adv-x="533" unicode="k" d="M58 0v720h152v-419l147 189h165l-175 -220l177 -270h-175l-139 223v-223h-152z"/>
<glyph glyph-name="l" horiz-adv-x="286" unicode="l" d="M67 0v720h152v-720h-152z"/>
<glyph glyph-name="m" horiz-adv-x="832" unicode="m" d="M59 0v490h149v-59q62 71 146 71q95 0 125 -76q68 76 157 76q140 0 140 -161v-341h-152v310q0 34 -11.5 50t-39.5 16q-40 0 -80 -49v-327h-152v310q0 66 -50 66q-8 0 -15.5 -2t-13.5 -4.5t-12.5 -7t-10.5 -7.5t-9.5 -8.5t-8 -8.5t-6.5 -7.5t-4 -5.5v-325h-152z"/>
<glyph glyph-name="n" horiz-adv-x="566" unicode="n" d="M59 0v490h149v-60q63 72 154 72q77 0 112.5 -44t35.5 -117v-341h-152v310q0 34 -13.5 50t-45.5 16q-48 0 -88 -53v-323h-152z"/>
<glyph glyph-name="o" horiz-adv-x="558" unicode="o" d="M281 101q48 0 68 36t20 106q0 148 -93 148q-48 0 -68 -37t-20 -106q0 -147 93 -147zM278 -12q-121 0 -186 75t-65 180q0 106 64.5 182.5t186.5 76.5t187 -74.5t65 -179.5t-65.5 -182.5t-186.5 -77.5z"/>
<glyph glyph-name="p" horiz-adv-x="569" unicode="p" d="M286 104q45 0 69.5 36.5t24.5 105.5q0 136 -87 136q-48 0 -82 -44v-205q33 -29 75 -29zM59 -219v709h149v-51q53 63 134 63q94 0 146.5 -67t52.5 -190q0 -115 -61.5 -186t-158.5 -71q-66 0 -110 32v-239h-152z"/>
<glyph glyph-name="q" horiz-adv-x="564" unicode="q" d="M282 105q43 0 74 34v236q-27 9 -59 9q-106 0 -106 -144q0 -135 91 -135zM356 -218v257q-49 -51 -119 -51q-94 0 -150.5 64t-56.5 189t74 193t191 68q125 0 213 -36v-684h-152z"/>
<glyph glyph-name="r" horiz-adv-x="405" unicode="r" d="M59 0v490h152v-64q45 76 122 76q45 0 71 -15l-36 -130q-22 12 -54 12q-63 0 -103 -66v-303h-152z"/>
<glyph glyph-name="s" horiz-adv-x="424" unicode="s" d="M200 -12q-110 0 -179 46l49 105q62 -40 121 -40q74 0 74 36q0 13 -15.5 22t-52 22.5t-61.5 25.5q-52 25 -76.5 57.5t-24.5 84.5q0 71 52.5 113t138.5 42q93 0 161 -37l-50 -103q-53 29 -104 29q-63 0 -63 -36q0 -8 5 -14.5t16 -12t21.5 -9t29 -10t31.5 -11.5 q64 -26 96 -59t32 -90q0 -79 -53 -120t-148 -41z"/>
<glyph glyph-name="t" horiz-adv-x="399" unicode="t" d="M260 -12q-90 0 -128 41t-38 119v230h-76v112h76v141h152v-141h112v-112h-112v-198q0 -36 10.5 -52t35.5 -16q32 0 64 16l33 -112q-51 -28 -129 -28z"/>
<glyph glyph-name="u" horiz-adv-x="566" unicode="u" d="M204 -12q-148 0 -148 160v342h152v-310q0 -34 13.5 -50t45.5 -16q45 0 88 52v324h152v-337q0 -89 14 -153h-150q-8 26 -10 64q-59 -76 -157 -76z"/>
<glyph glyph-name="v" horiz-adv-x="522" unicode="v" d="M189 0l-180 490h163l91 -303h2l93 303h155l-182 -490h-142z"/>
<glyph glyph-name="w" horiz-adv-x="757" unicode="w" d="M146 0l-137 490h163l65 -294h2l74 294h139l74 -296h2l68 296h151l-137 -490h-137l-95 311h-2l-93 -311h-137z"/>
<glyph glyph-name="x" horiz-adv-x="527" unicode="x" d="M14 0l167 252l-162 238h171q78 -118 79 -121l69 121h155l-151 -231l172 -259h-172l-89 142l-82 -142h-157z"/>
<glyph glyph-name="y" horiz-adv-x="532" unicode="y" d="M85 -235q-48 0 -85 10l22 120q21 -6 51 -6q47 0 70 19t37 58l17 47l-183 477h161l101 -302h3l89 302h155l-200 -538q-37 -99 -88 -143t-150 -44z"/>
<glyph glyph-name="z" horiz-adv-x="469" unicode="z" d="M38 0v81l202 295h-193v114h378v-86l-200 -290h201v-114h-388z"/>
<glyph glyph-name="braceleft" horiz-adv-x="421" unicode="{" d="M263 -161q-49 0 -86 34t-37 95v162q0 96 -115 97v116q60 1 87.5 25t27.5 73v151q0 63 36.5 95.5t88.5 32.5h129v-112h-60q-28 0 -38.5 -16t-10.5 -49v-136q0 -93 -88 -119v-2q88 -29 88 -126v-145q0 -36 9 -50t39 -14h61v-112h-131z"/>
<glyph glyph-name="bar" horiz-adv-x="287" unicode="|" d="M76 -250v1000h135v-1000h-135z"/>
<glyph glyph-name="braceright" horiz-adv-x="421" unicode="}" d="M26 -161v112h61q28 0 38.5 16t10.5 49v147q0 93 88 119v2q-88 29 -88 126v134q0 36 -9 50t-39 14h-62v112h132q49 0 86 -34t37 -95v-150q0 -97 115 -98v-116q-60 -1 -87.5 -24.5t-27.5 -72.5v-163q0 -63 -36.5 -95.5t-88.5 -32.5h-130z"/>
<glyph glyph-name="asciitilde" horiz-adv-x="584" unicode="~" d="M387 160q-50 0 -104.5 27.5t-92.5 27.5q-48 0 -89 -41l-69 89q71 76 164 76q46 0 100.5 -27.5t96.5 -27.5q49 0 90 41l69 -89q-71 -76 -165 -76z"/>
<glyph glyph-name="uni00A0" horiz-adv-x="184" unicode=" "/>
<glyph glyph-name="exclamdown" horiz-adv-x="305" unicode="¡" d="M68 -175l28 433h121l28 -433h-177zM157 322q-41 0 -67.5 26t-26.5 63t26.5 64t67.5 27q40 0 66.5 -27t26.5 -64t-26.5 -63t-66.5 -26z"/>
<glyph glyph-name="cent" horiz-adv-x="464" unicode="¢" d="M202 -123v122q-82 22 -128.5 86.5t-46.5 158.5q0 95 47 159t128 86v111h124v-99q72 -6 118 -36l-46 -103q-42 26 -98 26q-53 0 -82.5 -37t-29.5 -102q0 -67 29.5 -106t85.5 -39q52 0 101 26l44 -100q-57 -34 -122 -40v-113h-124z"/>
<glyph glyph-name="sterling" horiz-adv-x="527" unicode="£" d="M62 260v109h83q-12 66 -12 110q0 91 60.5 145t167.5 54q90 0 151 -38l-59 -105q-40 22 -83 22q-78 0 -78 -91q0 -42 11 -97h144v-109h-129v-3q0 -45 -17.5 -81t-41.5 -56h225v-120h-417v96q47 23 70.5 65t23.5 92v7h-99z"/>
<glyph glyph-name="currency" horiz-adv-x="647" unicode="¤" d="M329 218q35 0 54.5 22.5t19.5 57.5q0 36 -20 58t-54 22q-33 0 -54 -22.5t-21 -57.5t20 -57.5t55 -22.5zM177 -3l-111 85l79 100q-33 50 -33 116t37 120l-80 101l111 85l78 -106q36 12 71 12q31 0 63 -9l77 104l112 -86l-76 -95q41 -51 41 -126q0 -71 -38 -124l71 -91 l-111 -85l-71 97q-35 -10 -68 -10q-40 0 -77 13z"/>
<glyph glyph-name="yen" horiz-adv-x="603" unicode="¥" d="M225 0v82h-163v103h163v54h-163v103h115l-172 324h179l129 -268h1l128 268h157l-166 -324h117v-103h-164v-54h164v-103h-164v-82h-161z"/>
<glyph glyph-name="brokenbar" horiz-adv-x="261" unicode="¦" d="M61 382v368h136v-368h-136zM61 -250v378h136v-378h-136z"/>
<glyph glyph-name="section" horiz-adv-x="464" unicode="§" d="M271 208q18 18 18 44q0 6 -2 12.5t-6 14t-8.5 13.5t-12 14.5t-13 14.5t-15.5 15t-15 14t-16 14.5t-15 13.5q-13 -13 -13 -44q0 -18 17.5 -43t34 -41t46.5 -42zM188 -152q-92 0 -142 34l43 109q35 -25 79 -25q34 0 53 15.5t19 43.5q0 20 -21.5 44t-52.5 48t-62 52.5 t-52.5 68.5t-21.5 84q0 86 79 137q-35 53 -35 104q0 76 54 122.5t135 46.5q91 0 148 -39l-54 -97q-35 23 -74 23q-26 0 -40.5 -14t-14.5 -37t21 -48t51.5 -50.5t61 -55t51.5 -70.5t21 -86q0 -77 -76 -135q36 -48 36 -98q0 -87 -58.5 -132t-147.5 -45z"/>
<glyph glyph-name="dieresis" horiz-adv-x="500" unicode="¨" d="M359 543q-35 0 -58 22.5t-23 55.5q0 31 23 54t58 23t57.5 -23t22.5 -54q0 -33 -22.5 -55.5t-57.5 -22.5zM141 543q-35 0 -57.5 22.5t-22.5 55.5q0 31 22.5 54t57.5 23t58 -23t23 -54q0 -33 -23 -55.5t-58 -22.5z"/>
<glyph glyph-name="copyright" horiz-adv-x="827" unicode="©" d="M413 71q124 0 203 79t79 209q0 129 -79 208.5t-203 79.5t-203 -79.5t-79 -208.5q0 -130 79 -209t203 -79zM413 -14q-154 0 -263 109.5t-109 263.5t109 263.5t263 109.5q155 0 264 -109t109 -264t-109 -264t-264 -109zM419 138q-94 0 -156 62.5t-62 158.5q0 95 63.5 158 t157.5 63q88 0 150 -55l-59 -84q-41 33 -87 33q-45 0 -73.5 -31.5t-28.5 -81.5q0 -53 29.5 -87t74.5 -34q49 0 96 44l56 -78q-68 -68 -161 -68z"/>
<glyph glyph-name="ordfeminine" horiz-adv-x="382" unicode="ª" d="M167 392q27 0 51 21v55q-58 0 -77 -18q-11 -11 -11 -27q0 -31 37 -31zM133 311q-50 0 -81.5 26.5t-31.5 74.5q0 58 49 91t149 33v14q0 20 -10.5 29.5t-39.5 9.5q-42 0 -89 -32l-49 70q59 51 152 51q81 0 117 -31t36 -103v-113q0 -64 14 -111h-117q-5 11 -7 33 q-40 -42 -92 -42z"/>
<glyph glyph-name="guillemotleft" horiz-adv-x="559" unicode="«" d="M380 52l-116 193l116 194h155l-115 -194l115 -193h-155zM144 52l-116 193l116 194h155l-115 -194l115 -193h-155z"/>
<glyph glyph-name="logicalnot" horiz-adv-x="635" unicode="¬" d="M470 29v178h-430v116h550v-294h-120z"/>
<glyph glyph-name="uni00AD" horiz-adv-x="336" unicode="­" d="M50 219v122h237v-122h-237z"/>
<glyph glyph-name="registered" horiz-adv-x="827" unicode="®" d="M369 391h36q61 0 61 51t-58 51h-39v-102zM413 71q124 0 203 79t79 209q0 129 -79 208.5t-203 79.5t-203 -79.5t-79 -208.5q0 -130 79 -209t203 -79zM413 -14q-154 0 -263 109.5t-109 263.5t109 263.5t263 109.5q155 0 264 -109t109 -264t-109 -264t-264 -109zM267 163 v405h149q74 0 113 -31.5t39 -88.5q0 -88 -87 -110q22 -18 48 -62l66 -113h-111l-69 123q-14 23 -22.5 30t-23.5 7v-160h-102z"/>
<glyph glyph-name="macron" horiz-adv-x="500" unicode="¯" d="M107 558v106h285v-106h-285z"/>
<glyph glyph-name="degree" horiz-adv-x="346" unicode="°" d="M173 473q25 0 41 17t16 44t-16 44t-41 17t-41 -17t-16 -44t16 -44t41 -17zM173 390q-60 0 -103.5 42t-43.5 102t43.5 102t103.5 42t103.5 -42t43.5 -102t-43 -102t-104 -42z"/>
<glyph glyph-name="plusminus" horiz-adv-x="574" unicode="±" d="M49 -164v116h459v-116h-459zM215 27v178h-174v115h174v173h128v-173h173v-115h-173v-178h-128z"/>
<glyph glyph-name="twosuperior" horiz-adv-x="346" unicode="²" d="M22 330v60q8 6 25.5 19.5t25.5 20t23 18t22 18.5t18 17t16.5 17.5t11 16.5t8 17.5t2.5 16.5q0 33 -36 33q-37 0 -73 -32l-54 73q57 48 143 48q69 0 106.5 -30t37.5 -79q0 -40 -29 -73.5t-83 -74.5q18 2 50 2h75v-88h-289z"/>
<glyph glyph-name="threesuperior" horiz-adv-x="327" unicode="³" d="M109 324q-61 0 -90 11l21 85q28 -12 65 -12q60 0 60 26q0 29 -86 31v66q78 3 78 35q0 21 -32 21t-63 -18l-40 72q53 32 130 32q57 0 91 -21.5t34 -58.5q0 -31 -22 -50t-51 -26v-1q33 -5 59.5 -24.5t26.5 -56.5q0 -52 -47.5 -81.5t-133.5 -29.5z"/>
<glyph glyph-name="acute" horiz-adv-x="500" unicode="´" d="M144 541l80 138h192l-142 -138h-130z"/>
<glyph glyph-name="mu" horiz-adv-x="571" unicode="µ" d="M57 -210v700h152v-312q0 -33 12.5 -48.5t42.5 -15.5q48 0 91 52v324h152v-338q0 -88 14 -152h-149q-9 21 -11 63q-55 -62 -117 -70h-12q-13 0 -27 2h-4q4 -18 4 -95v-110h-148z"/>
<glyph glyph-name="paragraph" horiz-adv-x="668" unicode="¶" d="M238 -177v421q-88 0 -148.5 58.5t-60.5 151.5q0 94 60 153t149 59h406v-118h-73v-725h-132v725h-69v-725h-132z"/>
<glyph glyph-name="periodcentered" horiz-adv-x="270" unicode="·" d="M135 196q-41 0 -69 27t-28 67t28 67t69 27t69 -27t28 -67t-28 -67t-69 -27z"/>
<glyph glyph-name="cedilla" horiz-adv-x="493" unicode="¸" d="M230 -233q-56 0 -88 16l19 65q22 -11 51 -11q47 0 47 33q0 37 -57 37q-3 0 -7.5 -0.5t-6.5 -0.5l36 98h85l-21 -56q33 -7 52.5 -29t19.5 -56q0 -42 -36 -69t-94 -27z"/>
<glyph glyph-name="onesuperior" horiz-adv-x="295" unicode="¹" d="M107 330v238l-73 -17l-24 89l127 26h86v-336h-116z"/>
<glyph glyph-name="ordmasculine" horiz-adv-x="416" unicode="º" d="M209 397q33 0 45.5 24t12.5 72q0 101 -62 101q-32 0 -44.5 -24.5t-12.5 -72.5q0 -100 61 -100zM208 311q-88 0 -136.5 53t-48.5 129q0 77 48 131t136 54t137 -52.5t49 -128.5q0 -77 -48.5 -131.5t-136.5 -54.5z"/>
<glyph glyph-name="guillemotright" horiz-adv-x="559" unicode="»" d="M260 52l115 194l-115 193h155l116 -193l-116 -194h-155zM24 52l115 194l-115 193h154l116 -193l-116 -194h-154z"/>
<glyph glyph-name="onequarter" horiz-adv-x="777" unicode="¼" d="M524 140q18 2 43 2h24v78h-1zM587 0v59h-168v69l174 209h110v-195h52v-83h-52v-59h-116zM105 0l406 666h120l-406 -666h-120zM107 330v238l-73 -17l-24 89l127 26h86v-336h-116z"/>
<glyph glyph-name="onehalf" horiz-adv-x="790" unicode="½" d="M466 0v60q96 73 119 97q33 36 33 65q0 32 -35 32q-36 0 -74 -31l-54 72q57 48 143 48q69 0 106.5 -30t37.5 -78q0 -41 -29 -74.5t-83 -74.5q18 2 51 2h74v-88h-289zM105 0l406 666h120l-406 -666h-120zM107 330v238l-73 -17l-24 89l127 26h86v-336h-116z"/>
<glyph glyph-name="threequarters" horiz-adv-x="809" unicode="¾" d="M557 140q18 2 42 2h25v78h-1zM620 0v59h-169v69l175 209h109v-195h52v-83h-52v-59h-115zM137 0l406 666h121l-406 -666h-121zM109 324q-61 0 -90 11l21 85q28 -12 65 -12q60 0 60 26q0 29 -86 31v66q78 3 78 35q0 21 -32 21t-63 -18l-40 72q53 32 130 32q57 0 91 -21.5 t34 -58.5q0 -31 -22 -50t-51 -26v-1q33 -5 59.5 -24.5t26.5 -56.5q0 -52 -47.5 -81.5t-133.5 -29.5z"/>
<glyph glyph-name="questiondown" horiz-adv-x="414" unicode="¿" d="M253 322q-40 0 -66.5 26t-26.5 63t26.5 64t66.5 27q41 0 67.5 -27t26.5 -64t-26.5 -63t-67.5 -26zM239 -187q-105 0 -159 48.5t-54 124.5q0 89 84 150q8 6 24 16.5t23 16t16 14t12.5 18.5t3.5 23v35h130v-50q0 -45 -16 -71t-51 -49q-33 -22 -47 -41t-14 -48q0 -63 78 -63 q39 0 87 24l52 -110q-69 -38 -169 -38z"/>
<glyph glyph-name="Agrave" horiz-adv-x="697" unicode="À" d="M287 715l-142 138h192l80 -138h-130zM13 0l254 666h155l262 -666h-176l-39 112h-254l-39 -112h-163zM258 240h166l-49 137q-6 17 -33 116h-2q-1 -4 -6 -22t-12.5 -44t-15.5 -50z"/>
<glyph glyph-name="Aacute" horiz-adv-x="697" unicode="Á" d="M264 715l80 138h192l-142 -138h-130zM13 0l254 666h155l262 -666h-176l-39 112h-254l-39 -112h-163zM258 240h166l-49 137q-6 17 -33 116h-2q-1 -4 -6 -22t-12.5 -44t-15.5 -50z"/>
<glyph glyph-name="Acircumflex" horiz-adv-x="697" unicode="Â" d="M154 716l129 162h116l127 -162h-127l-59 60l-59 -60h-127zM13 0l254 666h155l262 -666h-176l-39 112h-254l-39 -112h-163zM258 240h166l-49 137q-6 17 -33 116h-2q-1 -4 -6 -22t-12.5 -44t-15.5 -50z"/>
<glyph glyph-name="Atilde" horiz-adv-x="697" unicode="Ã" d="M402 721q-34 0 -69 17t-53 17q-25 0 -55 -30l-68 58q17 32 48.5 56.5t70.5 24.5q35 0 69.5 -17t52.5 -17q29 0 57 31l68 -59q-18 -32 -50 -56.5t-71 -24.5zM13 0l254 666h155l262 -666h-176l-39 112h-254l-39 -112h-163zM258 240h166l-49 137q-6 17 -33 116h-2 q-1 -4 -6 -22t-12.5 -44t-15.5 -50z"/>
<glyph glyph-name="Adieresis" horiz-adv-x="697" unicode="Ä" d="M449 717q-35 0 -58 22.5t-23 55.5q0 31 23 54t58 23t57.5 -23t22.5 -54q0 -33 -22.5 -55.5t-57.5 -22.5zM231 717q-35 0 -57.5 22.5t-22.5 55.5q0 31 22.5 54t57.5 23t58 -23t23 -54q0 -33 -23 -55.5t-58 -22.5zM13 0l254 666h155l262 -666h-176l-39 112h-254l-39 -112 h-163zM258 240h166l-49 137q-6 17 -33 116h-2q-1 -4 -6 -22t-12.5 -44t-15.5 -50z"/>
<glyph glyph-name="Aring" horiz-adv-x="697" unicode="Å" d="M340 767q20 0 32.5 14.5t12.5 34.5q0 21 -12.5 35t-32.5 14t-32.5 -14t-12.5 -35q0 -20 12.5 -34.5t32.5 -14.5zM340 707q-46 0 -80 31.5t-34 77.5q0 47 34 78.5t80 31.5t80 -31.5t34 -78.5q0 -46 -34 -77.5t-80 -31.5zM13 0l254 666h155l262 -666h-176l-39 112h-254 l-39 -112h-163zM258 240h166l-49 137q-6 17 -33 116h-2q-1 -4 -6 -22t-12.5 -44t-15.5 -50z"/>
<glyph glyph-name="AE" horiz-adv-x="873" unicode="Æ" d="M282 252h130v242zM-26 0l377 666h459v-132h-239v-129h211v-124h-211v-149h246v-132h-405v127h-196l-68 -127h-174z"/>
<glyph glyph-name="Ccedilla" horiz-adv-x="619" unicode="Ç" d="M315 -233q-56 0 -88 16l19 65q22 -11 51 -11q47 0 47 33q0 37 -57 37q-3 0 -7.5 -0.5t-6.5 -0.5l33 90q-129 24 -197.5 118t-68.5 220q0 93 38 169.5t119 125.5t193 49q122 0 204 -54l-71 -117q-62 38 -136 38q-83 0 -129.5 -58t-46.5 -149q0 -95 46.5 -155.5 t132.5 -60.5q77 0 146 50l66 -113q-30 -26 -88.5 -48t-125.5 -23l-15 -40q33 -7 52.5 -29t19.5 -56q0 -42 -36 -69t-94 -27z"/>
<glyph glyph-name="Egrave" horiz-adv-x="539" unicode="È" d="M223 715l-142 138h192l80 -138h-130zM78 0v666h398v-132h-238v-129h210v-124h-210v-149h245v-132h-405z"/>
<glyph glyph-name="Eacute" horiz-adv-x="539" unicode="É" d="M78 0v666h398v-132h-238v-129h210v-124h-210v-149h245v-132h-405zM199 715l80 138h192l-142 -138h-130z"/>
<glyph glyph-name="Ecircumflex" horiz-adv-x="539" unicode="Ê" d="M78 0v666h398v-132h-238v-129h210v-124h-210v-149h245v-132h-405zM89 716l129 162h116l127 -162h-127l-59 60l-59 -60h-127z"/>
<glyph glyph-name="Edieresis" horiz-adv-x="539" unicode="Ë" d="M78 0v666h398v-132h-238v-129h210v-124h-210v-149h245v-132h-405zM384 717q-35 0 -58 22.5t-23 55.5q0 31 23 54t58 23q34 0 57 -23t23 -54q0 -33 -22.5 -55.5t-57.5 -22.5zM166 717q-35 0 -57.5 22.5t-22.5 55.5q0 31 23 54t57 23q35 0 58 -23t23 -54q0 -33 -23 -55.5 t-58 -22.5z"/>
<glyph glyph-name="Igrave" horiz-adv-x="338" unicode="Ì" d="M113 715l-142 138h192l80 -138h-130zM84 0v666h163v-666h-163z"/>
<glyph glyph-name="Iacute" horiz-adv-x="338" unicode="Í" d="M90 715l80 138h192l-142 -138h-130zM84 0v666h163v-666h-163z"/>
<glyph glyph-name="Icircumflex" horiz-adv-x="338" unicode="Î" d="M-20 716l129 162h116l127 -162h-127l-59 60l-59 -60h-127zM84 0v666h163v-666h-163z"/>
<glyph glyph-name="Idieresis" horiz-adv-x="338" unicode="Ï" d="M275 717q-35 0 -58 22.5t-23 55.5q0 31 23 54t58 23t57.5 -23t22.5 -54q0 -33 -22.5 -55.5t-57.5 -22.5zM57 717q-35 0 -57.5 22.5t-22.5 55.5q0 31 22.5 54t57.5 23t58 -23t23 -54q0 -33 -23 -55.5t-58 -22.5zM84 0v666h163v-666h-163z"/>
<glyph glyph-name="Eth" horiz-adv-x="715" unicode="Ð" d="M240 128h62q204 0 204 210q0 103 -51 151.5t-158 48.5h-57v-145h103v-112h-103v-153zM78 0v281h-62v112h62v273h217q189 0 285 -87t96 -237q0 -152 -98.5 -247t-288.5 -95h-211z"/>
<glyph glyph-name="Ntilde" horiz-adv-x="752" unicode="Ñ" d="M437 721q-34 0 -69 17t-53 17q-25 0 -55 -30l-68 58q17 32 48.5 56.5t70.5 24.5q35 0 69.5 -17t52.5 -17q29 0 57 31l68 -59q-18 -32 -50 -56.5t-71 -24.5zM78 0v666h163l216 -310q15 -21 29 -43t22 -35.5t14.5 -25.5t7.5 -13h2q-4 28 -4 109v318h146v-666h-147l-237 336 q-18 25 -33.5 48.5t-24 38t-10.5 17.5h-2q4 -28 4 -93v-347h-146z"/>
<glyph glyph-name="Ograve" d="M336 715l-142 138h192l80 -138h-130zM389 117q90 0 134 60.5t44 154.5q0 95 -43 156t-131 61q-90 0 -136 -59.5t-46 -152.5q0 -95 45 -157.5t133 -62.5zM393 -12q-164 0 -258.5 101t-94.5 243q0 92 38.5 169.5t119.5 127t191 49.5q164 0 256 -99.5t92 -241.5 q0 -69 -22 -131t-63.5 -111t-108.5 -78t-150 -29z" unicode="Ò"/>
<glyph glyph-name="Oacute" d="M389 117q90 0 134 60.5t44 154.5q0 95 -43 156t-131 61q-90 0 -136 -59.5t-46 -152.5q0 -95 45 -157.5t133 -62.5zM393 -12q-164 0 -258.5 101t-94.5 243q0 92 38.5 169.5t119.5 127t191 49.5q164 0 256 -99.5t92 -241.5q0 -69 -22 -131t-63.5 -111t-108.5 -78t-150 -29z M312 715l80 138h192l-142 -138h-130z" unicode="Ó"/>
<glyph glyph-name="Ocircumflex" d="M389 117q90 0 134 60.5t44 154.5q0 95 -43 156t-131 61q-90 0 -136 -59.5t-46 -152.5q0 -95 45 -157.5t133 -62.5zM393 -12q-164 0 -258.5 101t-94.5 243q0 92 38.5 169.5t119.5 127t191 49.5q164 0 256 -99.5t92 -241.5q0 -69 -22 -131t-63.5 -111t-108.5 -78t-150 -29z M202 716l129 162h116l127 -162h-127l-59 60l-59 -60h-127z" unicode="Ô"/>
<glyph glyph-name="Otilde" d="M450 721q-34 0 -69 17t-53 17q-25 0 -55 -30l-68 58q17 32 48.5 56.5t70.5 24.5q35 0 69.5 -17t52.5 -17q29 0 57 31l68 -59q-18 -32 -50 -56.5t-71 -24.5zM389 117q90 0 134 60.5t44 154.5q0 95 -43 156t-131 61q-90 0 -136 -59.5t-46 -152.5q0 -95 45 -157.5t133 -62.5 zM393 -12q-164 0 -258.5 101t-94.5 243q0 92 38.5 169.5t119.5 127t191 49.5q164 0 256 -99.5t92 -241.5q0 -69 -22 -131t-63.5 -111t-108.5 -78t-150 -29z" unicode="Õ"/>
<glyph glyph-name="Odieresis" d="M389 117q90 0 134 60.5t44 154.5q0 95 -43 156t-131 61q-90 0 -136 -59.5t-46 -152.5q0 -95 45 -157.5t133 -62.5zM393 -12q-164 0 -258.5 101t-94.5 243q0 92 38.5 169.5t119.5 127t191 49.5q164 0 256 -99.5t92 -241.5q0 -69 -22 -131t-63.5 -111t-108.5 -78t-150 -29z M497 717q-35 0 -58 22.5t-23 55.5q0 31 23 54t58 23t57.5 -23t22.5 -54q0 -33 -22.5 -55.5t-57.5 -22.5zM279 717q-35 0 -57.5 22.5t-22.5 55.5q0 31 22.5 54t57.5 23t58 -23t23 -54q0 -33 -23 -55.5t-58 -22.5z" unicode="Ö"/>
<glyph glyph-name="multiply" horiz-adv-x="511" unicode="×" d="M377 57l-121 121l-117 -117l-87 87l117 117l-118 118l87 88l119 -118l116 116l87 -87l-116 -116l121 -121z"/>
<glyph glyph-name="Oslash" d="M389 117q90 0 134 60.5t44 154.5q0 70 -24 122l-231 -321q32 -16 77 -16zM211 337q0 -74 26 -126l231 322q-34 16 -75 16q-90 0 -136 -59.5t-46 -152.5zM167 -77l-97 68l68 94q-98 98 -98 247q0 92 38.5 169.5t119.5 127t191 49.5q88 0 156 -31l65 90l96 -69l-63 -87 q94 -97 94 -244q0 -69 -22 -131t-63.5 -111t-108.5 -78t-150 -29q-86 0 -157 30z" unicode="Ø"/>
<glyph glyph-name="Ugrave" horiz-adv-x="723" unicode="Ù" d="M308 715l-142 138h192l80 -138h-130zM368 -12q-293 0 -293 273v405h162v-393q0 -80 30.5 -117t103.5 -37q128 0 128 147v400h148v-389q0 -141 -70.5 -215t-208.5 -74z"/>
<glyph glyph-name="Uacute" horiz-adv-x="723" unicode="Ú" d="M368 -12q-293 0 -293 273v405h162v-393q0 -80 30.5 -117t103.5 -37q128 0 128 147v400h148v-389q0 -141 -70.5 -215t-208.5 -74zM285 715l80 138h192l-142 -138h-130z"/>
<glyph glyph-name="Ucircumflex" horiz-adv-x="723" unicode="Û" d="M368 -12q-293 0 -293 273v405h162v-393q0 -80 30.5 -117t103.5 -37q128 0 128 147v400h148v-389q0 -141 -70.5 -215t-208.5 -74zM175 716l129 162h116l127 -162h-127l-59 60l-59 -60h-127z"/>
<glyph glyph-name="Udieresis" horiz-adv-x="723" unicode="Ü" d="M368 -12q-293 0 -293 273v405h162v-393q0 -80 30.5 -117t103.5 -37q128 0 128 147v400h148v-389q0 -141 -70.5 -215t-208.5 -74zM470 717q-35 0 -58 22.5t-23 55.5q0 31 23 54t58 23q34 0 57 -23t23 -54q0 -33 -22.5 -55.5t-57.5 -22.5zM252 717q-35 0 -57.5 22.5 t-22.5 55.5q0 31 23 54t57 23q35 0 58 -23t23 -54q0 -33 -23 -55.5t-58 -22.5z"/>
<glyph glyph-name="Yacute" horiz-adv-x="612" unicode="Ý" d="M234 715l80 138h192l-142 -138h-130zM229 0v251l-220 415h179l129 -265h1l128 265h157l-212 -415v-251h-162z"/>
<glyph glyph-name="Thorn" horiz-adv-x="620" unicode="Þ" d="M238 241h58q60 0 88 24.5t28 76.5q0 96 -112 96h-62v-197zM77 0v666h161v-106h74q117 0 189 -55t72 -161q0 -109 -74.5 -166.5t-203.5 -57.5h-57v-120h-161z"/>
<glyph glyph-name="germandbls" horiz-adv-x="590" unicode="ß" d="M391 -12q-87 0 -145 31l39 107q38 -27 84 -27q60 0 60 42q0 9 -4.5 17t-14 16t-18.5 14t-25 15.5t-26 16.5q-75 53 -75 120q0 19 3 34t12 29t13 19.5t18.5 20.5t15.5 16q38 38 38 81q0 76 -71 76q-83 0 -83 -121v-495h-152v497q0 119 67 177t171 58t161.5 -53t57.5 -133 q0 -61 -49 -108q-9 -11 -28 -26.5t-27.5 -27.5t-8.5 -27q0 -4 1 -8t2.5 -7.5t4.5 -7.5t5.5 -6.5t7.5 -6.5t8.5 -6.5t10 -6.5t10.5 -6.5t12.5 -7.5t12.5 -7q28 -18 44.5 -32t31.5 -44.5t15 -70.5q0 -70 -47.5 -111t-131.5 -41z"/>
<glyph glyph-name="agrave" horiz-adv-x="512" unicode="à" d="M202 541l-142 138h192l80 -138h-130zM229 95q44 0 77 35v82h-16q-116 0 -116 -71q0 -22 15.5 -34t39.5 -12zM180 -12q-65 0 -107.5 37.5t-42.5 102.5q0 88 75 131.5t185 43.5h16v23q0 30 -16 43.5t-58 13.5q-67 0 -123 -44l-64 91q81 72 206 72q108 0 157.5 -44 t49.5 -143v-160q0 -89 14 -155h-149q-7 21 -9 51q-50 -63 -134 -63z"/>
<glyph glyph-name="aacute" horiz-adv-x="512" unicode="á" d="M178 541l80 138h192l-142 -138h-130zM229 95q44 0 77 35v82h-16q-116 0 -116 -71q0 -22 15.5 -34t39.5 -12zM180 -12q-65 0 -107.5 37.5t-42.5 102.5q0 88 75 131.5t185 43.5h16v23q0 30 -16 43.5t-58 13.5q-67 0 -123 -44l-64 91q81 72 206 72q108 0 157.5 -44 t49.5 -143v-160q0 -89 14 -155h-149q-7 21 -9 51q-50 -63 -134 -63z"/>
<glyph glyph-name="acircumflex" horiz-adv-x="512" unicode="â" d="M68 542l129 162h116l127 -162h-127l-59 60l-59 -60h-127zM229 95q44 0 77 35v82h-16q-116 0 -116 -71q0 -22 15.5 -34t39.5 -12zM180 -12q-65 0 -107.5 37.5t-42.5 102.5q0 88 75 131.5t185 43.5h16v23q0 30 -16 43.5t-58 13.5q-67 0 -123 -44l-64 91q81 72 206 72 q108 0 157.5 -44t49.5 -143v-160q0 -89 14 -155h-149q-7 21 -9 51q-50 -63 -134 -63z"/>
<glyph glyph-name="atilde" horiz-adv-x="512" unicode="ã" d="M316 547q-34 0 -69 17t-53 17q-25 0 -55 -30l-68 58q17 32 48.5 56.5t70.5 24.5q35 0 69.5 -17t52.5 -17q29 0 57 31l68 -59q-18 -32 -50 -56.5t-71 -24.5zM229 95q44 0 77 35v82h-16q-116 0 -116 -71q0 -22 15.5 -34t39.5 -12zM180 -12q-65 0 -107.5 37.5t-42.5 102.5 q0 88 75 131.5t185 43.5h16v23q0 30 -16 43.5t-58 13.5q-67 0 -123 -44l-64 91q81 72 206 72q108 0 157.5 -44t49.5 -143v-160q0 -89 14 -155h-149q-7 21 -9 51q-50 -63 -134 -63z"/>
<glyph glyph-name="adieresis" horiz-adv-x="512" unicode="ä" d="M363 543q-35 0 -58 22.5t-23 55.5q0 31 23 54t58 23t57.5 -23t22.5 -54q0 -33 -22.5 -55.5t-57.5 -22.5zM145 543q-35 0 -57.5 22.5t-22.5 55.5q0 31 22.5 54t57.5 23t58 -23t23 -54q0 -33 -23 -55.5t-58 -22.5zM229 95q44 0 77 35v82h-16q-116 0 -116 -71 q0 -22 15.5 -34t39.5 -12zM180 -12q-65 0 -107.5 37.5t-42.5 102.5q0 88 75 131.5t185 43.5h16v23q0 30 -16 43.5t-58 13.5q-67 0 -123 -44l-64 91q81 72 206 72q108 0 157.5 -44t49.5 -143v-160q0 -89 14 -155h-149q-7 21 -9 51q-50 -63 -134 -63z"/>
<glyph glyph-name="aring" horiz-adv-x="512" unicode="å" d="M254 598q20 0 32.5 14.5t12.5 34.5q0 21 -12.5 35t-32.5 14t-32.5 -14t-12.5 -35q0 -20 12.5 -34.5t32.5 -14.5zM254 538q-46 0 -80 31.5t-34 77.5q0 47 34 78.5t80 31.5t80 -31.5t34 -78.5q0 -46 -34 -77.5t-80 -31.5zM229 95q44 0 77 35v82h-16q-116 0 -116 -71 q0 -22 15.5 -34t39.5 -12zM180 -12q-65 0 -107.5 37.5t-42.5 102.5q0 88 75 131.5t185 43.5h16v23q0 30 -16 43.5t-58 13.5q-67 0 -123 -44l-64 91q81 72 206 72q108 0 157.5 -44t49.5 -143v-160q0 -89 14 -155h-149q-7 21 -9 51q-50 -63 -134 -63z"/>
<glyph glyph-name="ae" horiz-adv-x="803" unicode="æ" d="M460 304h162q-2 91 -74 91q-73 0 -88 -91zM229 95q55 0 91 49q-12 31 -15 68h-15q-116 0 -116 -71q0 -22 15.5 -34t39.5 -12zM180 -12q-65 0 -107.5 37.5t-42.5 102.5q0 88 75 131.5t185 43.5h19v23q0 29 -17.5 43t-59.5 14q-62 0 -123 -44l-64 91q80 72 206 72 q107 0 152 -51q65 51 147 51q107 0 163 -64t56 -183q0 -33 -2 -51h-303q15 -105 116 -105q60 0 125 31l47 -95q-84 -47 -186 -47q-130 0 -202 82q-76 -82 -184 -82z"/>
<glyph glyph-name="ccedilla" horiz-adv-x="464" unicode="ç" d="M215 -233q-56 0 -88 16l19 65q22 -11 51 -11q47 0 47 33q0 37 -57 37q-3 0 -7.5 -0.5t-6.5 -0.5l34 92q-84 21 -132 86t-48 160q0 121 73.5 189.5t193.5 68.5q93 0 150 -37l-46 -103q-42 26 -98 26q-53 0 -82.5 -37t-29.5 -102q0 -67 29.5 -106t85.5 -39q52 0 101 26 l44 -100q-69 -42 -158 -42h-2l-15 -40q33 -7 52.5 -29t19.5 -56q0 -42 -36 -69t-94 -27z"/>
<glyph glyph-name="egrave" horiz-adv-x="528" unicode="è" d="M224 541l-142 138h192l80 -138h-130zM187 304h161q-2 91 -74 91q-73 0 -87 -91zM291 -12q-124 0 -194 69.5t-70 189.5q0 116 71.5 185.5t177.5 69.5q107 0 163 -64t56 -183q0 -33 -2 -51h-302q12 -105 115 -105q60 0 125 31l47 -95q-84 -47 -187 -47z"/>
<glyph glyph-name="eacute" horiz-adv-x="528" unicode="é" d="M187 304h161q-2 91 -74 91q-73 0 -87 -91zM291 -12q-124 0 -194 69.5t-70 189.5q0 116 71.5 185.5t177.5 69.5q107 0 163 -64t56 -183q0 -33 -2 -51h-302q12 -105 115 -105q60 0 125 31l47 -95q-84 -47 -187 -47zM200 541l80 138h192l-142 -138h-130z"/>
<glyph glyph-name="ecircumflex" horiz-adv-x="528" unicode="ê" d="M187 304h161q-2 91 -74 91q-73 0 -87 -91zM291 -12q-124 0 -194 69.5t-70 189.5q0 116 71.5 185.5t177.5 69.5q107 0 163 -64t56 -183q0 -33 -2 -51h-302q12 -105 115 -105q60 0 125 31l47 -95q-84 -47 -187 -47zM90 542l129 162h116l127 -162h-127l-59 60l-59 -60h-127z "/>
<glyph glyph-name="edieresis" horiz-adv-x="528" unicode="ë" d="M187 304h161q-2 91 -74 91q-73 0 -87 -91zM291 -12q-124 0 -194 69.5t-70 189.5q0 116 71.5 185.5t177.5 69.5q107 0 163 -64t56 -183q0 -33 -2 -51h-302q12 -105 115 -105q60 0 125 31l47 -95q-84 -47 -187 -47zM385 543q-35 0 -58 22.5t-23 55.5q0 31 23 54t58 23 t57.5 -23t22.5 -54q0 -33 -22.5 -55.5t-57.5 -22.5zM167 543q-35 0 -57.5 22.5t-22.5 55.5q0 31 22.5 54t57.5 23t58 -23t23 -54q0 -33 -23 -55.5t-58 -22.5z"/>
<glyph glyph-name="igrave" horiz-adv-x="290" unicode="ì" d="M93 541l-142 138h192l80 -138h-130zM68 0v490h154v-490h-154z"/>
<glyph glyph-name="iacute" horiz-adv-x="290" unicode="í" d="M68 0v490h154v-490h-154zM69 541l80 138h192l-142 -138h-130z"/>
<glyph glyph-name="icircumflex" horiz-adv-x="290" unicode="î" d="M68 0v490h154v-490h-154zM-41 542l129 162h116l127 -162h-127l-59 60l-59 -60h-127z"/>
<glyph glyph-name="idieresis" horiz-adv-x="290" unicode="ï" d="M68 0v490h154v-490h-154zM254 543q-35 0 -58 22.5t-23 55.5q0 31 23 54t58 23q34 0 57 -23t23 -54q0 -33 -22.5 -55.5t-57.5 -22.5zM36 543q-35 0 -57.5 22.5t-22.5 55.5q0 31 23 54t57 23q35 0 58 -23t23 -54q0 -33 -23 -55.5t-58 -22.5z"/>
<glyph glyph-name="eth" horiz-adv-x="566" unicode="ð" d="M281 101q48 0 71 46t23 149q0 28 -1 39q-30 42 -95 42q-45 0 -67.5 -36t-22.5 -100q0 -65 23.5 -102.5t68.5 -37.5zM280 -12q-110 0 -181 66.5t-71 184.5q0 116 65.5 183t160.5 67q58 0 93 -27q-24 69 -77 105l-62 -57l-58 58l38 34q-54 14 -116 14l31 116q106 0 191 -31 l68 62l57 -58l-47 -43q163 -110 163 -362q0 -143 -65 -227.5t-190 -84.5z"/>
<glyph glyph-name="ntilde" horiz-adv-x="566" unicode="ñ" d="M343 547q-34 0 -69 17t-53 17q-25 0 -55 -30l-68 58q17 32 48.5 56.5t70.5 24.5q35 0 69.5 -17t52.5 -17q29 0 57 31l68 -59q-18 -32 -50 -56.5t-71 -24.5zM59 0v490h149v-60q63 72 154 72q77 0 112.5 -44t35.5 -117v-341h-152v310q0 34 -13.5 50t-45.5 16q-48 0 -88 -53 v-323h-152z"/>
<glyph glyph-name="ograve" horiz-adv-x="558" unicode="ò" d="M227 541l-142 138h192l80 -138h-130zM281 101q48 0 68 36t20 106q0 148 -93 148q-48 0 -68 -37t-20 -106q0 -147 93 -147zM278 -12q-121 0 -186 75t-65 180q0 106 64.5 182.5t186.5 76.5t187 -74.5t65 -179.5t-65.5 -182.5t-186.5 -77.5z"/>
<glyph glyph-name="oacute" horiz-adv-x="558" unicode="ó" d="M281 101q48 0 68 36t20 106q0 148 -93 148q-48 0 -68 -37t-20 -106q0 -147 93 -147zM278 -12q-121 0 -186 75t-65 180q0 106 64.5 182.5t186.5 76.5t187 -74.5t65 -179.5t-65.5 -182.5t-186.5 -77.5zM202 541l80 138h192l-142 -138h-130z"/>
<glyph glyph-name="ocircumflex" horiz-adv-x="558" unicode="ô" d="M281 101q48 0 68 36t20 106q0 148 -93 148q-48 0 -68 -37t-20 -106q0 -147 93 -147zM278 -12q-121 0 -186 75t-65 180q0 106 64.5 182.5t186.5 76.5t187 -74.5t65 -179.5t-65.5 -182.5t-186.5 -77.5zM92 542l129 162h116l127 -162h-127l-59 60l-59 -60h-127z"/>
<glyph glyph-name="otilde" horiz-adv-x="558" unicode="õ" d="M340 547q-34 0 -69 17t-53 17q-25 0 -55 -30l-68 58q17 32 48.5 56.5t70.5 24.5q35 0 69.5 -17t52.5 -17q29 0 57 31l68 -59q-18 -32 -50 -56.5t-71 -24.5zM281 101q48 0 68 36t20 106q0 148 -93 148q-48 0 -68 -37t-20 -106q0 -147 93 -147zM278 -12q-121 0 -186 75 t-65 180q0 106 64.5 182.5t186.5 76.5t187 -74.5t65 -179.5t-65.5 -182.5t-186.5 -77.5z"/>
<glyph glyph-name="odieresis" horiz-adv-x="558" unicode="ö" d="M281 101q48 0 68 36t20 106q0 148 -93 148q-48 0 -68 -37t-20 -106q0 -147 93 -147zM278 -12q-121 0 -186 75t-65 180q0 106 64.5 182.5t186.5 76.5t187 -74.5t65 -179.5t-65.5 -182.5t-186.5 -77.5zM387 543q-35 0 -58 22.5t-23 55.5q0 31 23 54t58 23t57.5 -23 t22.5 -54q0 -33 -22.5 -55.5t-57.5 -22.5zM169 543q-35 0 -57.5 22.5t-22.5 55.5q0 31 22.5 54t57.5 23t58 -23t23 -54q0 -33 -23 -55.5t-58 -22.5z"/>
<glyph glyph-name="divide" horiz-adv-x="572" unicode="÷" d="M41 189v112h488v-112h-488zM283 343q-32 0 -55.5 23t-23.5 55t23.5 55t55.5 23q33 0 55.5 -23t22.5 -55t-22.5 -55t-55.5 -23zM283 -10q-32 0 -55.5 23t-23.5 55t23.5 55t55.5 23q33 0 55.5 -23t22.5 -55t-22.5 -55t-55.5 -23z"/>
<glyph glyph-name="oslash" horiz-adv-x="558" unicode="ø" d="M183 248q0 -32 4 -53l128 190q-18 8 -39 8q-93 0 -93 -145zM281 98q93 0 93 145q0 37 -7 64l-134 -196q19 -13 48 -13zM116 -71l-84 55l56 82q-61 71 -61 177t64.5 182.5t186.5 76.5q53 0 99 -16l58 86l85 -56l-58 -86q68 -71 68 -182q0 -105 -65.5 -182.5t-186.5 -77.5 q-60 0 -107 19z"/>
<glyph glyph-name="ugrave" horiz-adv-x="566" unicode="ù" d="M231 541l-142 138h192l80 -138h-130zM204 -12q-148 0 -148 160v342h152v-310q0 -34 13.5 -50t45.5 -16q45 0 88 52v324h152v-337q0 -89 14 -153h-150q-8 26 -10 64q-59 -76 -157 -76z"/>
<glyph glyph-name="uacute" horiz-adv-x="566" unicode="ú" d="M204 -12q-148 0 -148 160v342h152v-310q0 -34 13.5 -50t45.5 -16q45 0 88 52v324h152v-337q0 -89 14 -153h-150q-8 26 -10 64q-59 -76 -157 -76zM206 541l80 138h192l-142 -138h-130z"/>
<glyph glyph-name="ucircumflex" horiz-adv-x="566" unicode="û" d="M204 -12q-148 0 -148 160v342h152v-310q0 -34 13.5 -50t45.5 -16q45 0 88 52v324h152v-337q0 -89 14 -153h-150q-8 26 -10 64q-59 -76 -157 -76zM96 542l129 162h116l127 -162h-127l-59 60l-59 -60h-127z"/>
<glyph glyph-name="udieresis" horiz-adv-x="566" unicode="ü" d="M204 -12q-148 0 -148 160v342h152v-310q0 -34 13.5 -50t45.5 -16q45 0 88 52v324h152v-337q0 -89 14 -153h-150q-8 26 -10 64q-59 -76 -157 -76zM391 543q-35 0 -58 22.5t-23 55.5q0 31 23 54t58 23t57.5 -23t22.5 -54q0 -33 -22.5 -55.5t-57.5 -22.5zM173 543 q-35 0 -57.5 22.5t-22.5 55.5q0 31 22.5 54t57.5 23t58 -23t23 -54q0 -33 -23 -55.5t-58 -22.5z"/>
<glyph glyph-name="yacute" horiz-adv-x="532" unicode="ý" d="M196 541l80 138h192l-142 -138h-130zM85 -235q-48 0 -85 10l22 120q21 -6 51 -6q47 0 70 19t37 58l17 47l-183 477h161l101 -302h3l89 302h155l-200 -538q-37 -99 -88 -143t-150 -44z"/>
<glyph glyph-name="thorn" horiz-adv-x="582" unicode="þ" d="M286 104q45 0 69.5 36.5t24.5 105.5q0 136 -87 136q-47 0 -82 -44v-205q35 -29 75 -29zM59 -219v938h152v-276q53 59 131 59q94 0 146.5 -67t52.5 -190q0 -115 -61.5 -186t-158.5 -71q-70 0 -110 32v-239h-152z"/>
<glyph glyph-name="OE" horiz-adv-x="932" unicode="Œ" d="M380 117q55 0 94 18v395q-33 19 -90 19q-90 0 -136 -60t-46 -152q0 -95 45 -157.5t133 -62.5zM384 -12q-110 0 -192 49.5t-121 126t-39 168.5t38.5 169.5t119 127t190.5 49.5q49 0 102 -12h388v-132h-239v-129h210v-124h-210v-149h246v-132h-386q-51 -12 -107 -12z"/>
<glyph glyph-name="oe" horiz-adv-x="870" unicode="œ" d="M525 304h161q-4 91 -74 91q-73 0 -87 -91zM281 101q48 0 68 36t20 106q0 148 -93 148q-48 0 -68 -37t-20 -106q0 -147 93 -147zM278 -12q-121 0 -186 75t-65 180q0 106 64.5 182.5t186.5 76.5q106 0 170 -67q69 67 166 67q107 0 163 -64t56 -183q0 -33 -2 -51h-303 q13 -105 116 -105q60 0 125 31l47 -95q-27 -15 -42.5 -22t-56 -16t-88.5 -9q-114 0 -182 68q-66 -68 -169 -68z"/>
<glyph glyph-name="Scaron" horiz-adv-x="522" unicode="Š" d="M238 -12q-130 0 -211 65l66 112q72 -48 140 -48q46 0 71 18.5t25 47.5q0 18 -13.5 33t-29.5 22.5t-50 22.5t-54 25q-68 33 -103.5 79.5t-35.5 122.5q0 85 63 137.5t159 52.5q123 0 201 -57l-63 -112q-66 40 -127 40q-80 0 -80 -60q0 -11 5 -21t10.5 -16.5t20 -14.5 t23.5 -12t30.5 -13.5t33.5 -14.5q81 -36 123 -79.5t42 -125.5q0 -95 -65.5 -149.5t-180.5 -54.5zM201 715l-127 161h127l59 -59l59 59h127l-129 -161h-116z"/>
<glyph glyph-name="scaron" horiz-adv-x="424" unicode="š" d="M200 -12q-110 0 -179 46l49 105q62 -40 121 -40q74 0 74 36q0 13 -15.5 22t-52 22.5t-61.5 25.5q-52 25 -76.5 57.5t-24.5 84.5q0 71 52.5 113t138.5 42q93 0 161 -37l-50 -103q-53 29 -104 29q-63 0 -63 -36q0 -8 5 -14.5t16 -12t21.5 -9t29 -10t31.5 -11.5 q64 -26 96 -59t32 -90q0 -79 -53 -120t-148 -41zM152 541l-127 161h127l59 -59l59 59h127l-129 -161h-116z"/>
<glyph glyph-name="Ydieresis" horiz-adv-x="612" unicode="Ÿ" d="M419 717q-35 0 -58 22.5t-23 55.5q0 31 23 54t58 23t57.5 -23t22.5 -54q0 -33 -22.5 -55.5t-57.5 -22.5zM201 717q-35 0 -57.5 22.5t-22.5 55.5q0 31 22.5 54t57.5 23t58 -23t23 -54q0 -33 -23 -55.5t-58 -22.5zM229 0v251l-220 415h179l129 -265h1l128 265h157 l-212 -415v-251h-162z"/>
<glyph glyph-name="circumflex" horiz-adv-x="500" unicode="ˆ" d="M64 542l129 162h116l127 -162h-127l-59 60l-59 -60h-127z"/>
<glyph glyph-name="tilde" horiz-adv-x="500" unicode="˜" d="M312 547q-34 0 -69 17t-53 17q-25 0 -55 -30l-68 58q17 32 48.5 56.5t70.5 24.5q35 0 69.5 -17t52.5 -17q29 0 57 31l68 -59q-18 -32 -50 -56.5t-71 -24.5z"/>
<glyph glyph-name="uni0394" horiz-adv-x="674" unicode="Δ" d="M206 132h250l-91 247q-8 22 -16 48t-13 44t-6 20h-2q-11 -49 -34 -112zM28 0v79l229 587h153l237 -587v-79h-619z"/>
<glyph glyph-name="uni03BC" horiz-adv-x="571" unicode="μ" d="M57 -218v708h152v-312q0 -33 12.5 -48.5t42.5 -15.5q48 0 91 52v324h152v-338q0 -88 14 -152h-149q-9 21 -11 63q-55 -62 -117 -70h-12q-13 0 -27 2h-4q4 -18 4 -95v-118h-148z"/>
<glyph glyph-name="pi" horiz-adv-x="662" unicode="π" d="M519 -12q-82 0 -117 39.5t-35 110.5v238h-107q0 -204 -25 -376h-153q30 185 30 376h-91v114h612v-114h-115v-206q0 -31 8 -44.5t26 -13.5q23 0 39 11l32 -112q-42 -23 -104 -23z"/>
<glyph glyph-name="endash" horiz-adv-x="558" unicode="–" d="M46 208v116h466v-116h-466z"/>
<glyph glyph-name="emdash" horiz-adv-x="882" unicode="—" d="M46 208v116h790v-116h-790z"/>
<glyph glyph-name="quoteleft" horiz-adv-x="233" unicode="‘" d="M125 374q-41 0 -70.5 29t-29.5 78q0 47 22.5 97.5t51.5 87.5h92q-37 -52 -37 -94q0 -23 14 -39.5t28 -35t14 -44.5q0 -35 -24.5 -57t-60.5 -22z"/>
<glyph glyph-name="quotesinglbase" horiz-adv-x="269" unicode="‚" d="M60 -127q37 52 37 94q0 27 -28 57t-28 62q0 35 24.5 57t60.5 22q42 0 71 -29.5t29 -77.5q0 -47 -22.5 -97.5t-51.5 -87.5h-92z"/>
<glyph glyph-name="quotedblleft" horiz-adv-x="458" unicode="“" d="M350 374q-41 0 -70 29t-29 78q0 47 22.5 97.5t51.5 87.5h91q-37 -56 -37 -94q0 -23 14 -39.5t28 -35t14 -44.5q0 -35 -24.5 -57t-60.5 -22zM122 374q-41 0 -70 29t-29 78q0 47 22.5 97.5t51.5 87.5h91q-37 -56 -37 -94q0 -23 14.5 -39.5t28.5 -35t14 -44.5 q0 -35 -24.5 -57t-61.5 -22z"/>
<glyph glyph-name="quotedblright" horiz-adv-x="458" unicode="”" d="M270 386q37 56 37 95q0 26 -28.5 55.5t-28.5 62.5q0 35 24.5 57t61.5 22q41 0 70 -29t29 -78q0 -47 -22.5 -97.5t-51.5 -87.5h-91zM42 386q37 56 37 95q0 26 -28 55.5t-28 62.5q0 35 24.5 57t60.5 22q41 0 70 -29t29 -78q0 -47 -22.5 -97.5t-51.5 -87.5h-91z"/>
<glyph glyph-name="dagger" horiz-adv-x="563" unicode="†" d="M233 -170l-39 416l20 122l-68 -10h-110v132h110l68 -10l-14 103v137h163v-137l-14 -103l68 10h110v-132h-110l-68 10l19 -122l-38 -416h-97z"/>
<glyph glyph-name="daggerdbl" horiz-adv-x="578" unicode="‡" d="M200 -169v112l14 103l-68 -10h-110v132h110l68 -10l-19 105l19 105l-68 -10h-110v132h110l68 -10l-14 103v137h163v-137l-14 -103l68 10h110v-132h-110l-68 10l18 -105l-18 -105l68 10h110v-132h-110l-68 10l14 -103v-112h-163z"/>
<glyph glyph-name="ellipsis" horiz-adv-x="804" unicode="…" d="M652 -10q-41 0 -69 27t-28 67q0 39 28 66t69 27q40 0 68.5 -27t28.5 -66t-28.5 -66.5t-68.5 -27.5zM402 -10q-41 0 -69 27t-28 67q0 39 28 66t69 27t69 -27t28 -66q0 -40 -28 -67t-69 -27zM152 -10q-41 0 -69 27t-28 67q0 39 28 66t69 27t69 -27t28 -66q0 -40 -28 -67 t-69 -27z"/>
<glyph glyph-name="perthousand" horiz-adv-x="1299" unicode="‰" d="M245 0l294 490h126l-294 -490h-126zM1099 80q49 0 49 68q0 71 -50 71q-52 0 -52 -67q0 -30 13 -51t40 -21zM1097 -12q-86 0 -132.5 45.5t-46.5 114.5q0 68 48 115.5t133 47.5t132 -45t47 -114q0 -68 -48 -116t-133 -48zM709 80q49 0 49 68q0 71 -50 71q-51 0 -51 -67 q0 -31 12.5 -51.5t39.5 -20.5zM707 -12q-86 0 -132.5 45.5t-46.5 114.5q0 68 48 115.5t133 47.5t132 -45t47 -114q0 -68 -48 -116t-133 -48zM202 271q50 0 50 68q0 71 -51 71q-50 0 -50 -66q0 -73 51 -73zM200 179q-85 0 -132 45.5t-47 114.5q0 68 48 115.5t133 47.5 q86 0 132.5 -44.5t46.5 -113.5t-48 -117t-133 -48z"/>
<glyph glyph-name="guilsinglleft" horiz-adv-x="328" unicode="‹" d="M144 52l-116 193l116 194h160l-115 -194l115 -193h-160z"/>
<glyph glyph-name="guilsinglright" horiz-adv-x="328" unicode="›" d="M24 52l115 194l-115 193h159l117 -193l-117 -194h-159z"/>
<glyph glyph-name="fraction" horiz-adv-x="149" unicode="⁄" d="M-190 0l406 666h120l-406 -666h-120z"/>
<glyph glyph-name="Euro" horiz-adv-x="588" unicode="€" d="M32 355v104h70q27 102 100.5 160.5t189.5 58.5q114 0 183 -44l-64 -118q-51 30 -115 30q-90 0 -126 -87h151v-104h-170v-48h170v-103h-149q34 -83 123 -83q65 0 125 40l60 -113q-80 -60 -191 -60q-106 0 -182 53t-105 163h-70v103h56q-1 9 -1 27v21h-55z"/>
<glyph glyph-name="trademark" horiz-adv-x="747" unicode="™" d="M118 368v223h-88v75h267v-75h-87v-223h-92zM315 368l42 298h91l48 -137q17 -46 17 -60h2l2 7q2 6 4 13.5t5.5 18.5t7.5 21l47 137h93l41 -298h-95l-12 118q-4 31 -4 48h-2q0 -16 -14 -57l-37 -109h-81l-35 109q-3 11 -7 25.5t-6.5 22.5t-2.5 9h-2q0 -13 -4 -49l-14 -117 h-84z"/>
<glyph glyph-name="partialdiff" horiz-adv-x="658" unicode="∂" d="M294 122q51 0 89.5 40.5t51.5 112.5q-22 16 -58.5 28t-71.5 12q-45 0 -70 -30.5t-25 -76.5q0 -36 24.5 -61t59.5 -25zM276 -11q-100 0 -168 65t-68 154q0 107 70 169.5t171 62.5q88 0 153 -28q-10 52 -37.5 87t-68.5 51.5t-82.5 22.5t-95.5 6l37 142q7 0 21 0.5t20 0.5 q180 0 281.5 -92.5t101.5 -267.5q0 -162 -90.5 -267.5t-244.5 -105.5z"/>
<glyph glyph-name="product" horiz-adv-x="916" unicode="∏" d="M168 -224v786h-109v138h775v-138h-109v-786h-152v786h-253v-786h-152z"/>
<glyph glyph-name="summation" horiz-adv-x="673" unicode="∑" d="M53 -146v98l271 389l-255 340v98h547v-131h-369l233 -303l-251 -359h402v-132h-578z"/>
<glyph glyph-name="minus" horiz-adv-x="550" unicode="−" d="M86 221v114h369v-114h-369z"/>
<glyph glyph-name="radical" horiz-adv-x="585" unicode="√" d="M201 0l-187 490h162l96 -285h2l159 515h154l-244 -720h-142z"/>
<glyph glyph-name="infinity" horiz-adv-x="970" unicode="∞" d="M710 198q27 0 49.5 17t22.5 41q0 27 -23 42.5t-53 15.5q-40 0 -115 -56q78 -60 119 -60zM257 198q42 0 117 57q-79 59 -118 59q-27 0 -50.5 -15.5t-23.5 -40.5q0 -27 22.5 -43.5t52.5 -16.5zM254 69q-87 0 -147.5 51t-60.5 133q0 81 63 135.5t148 54.5q96 0 227 -102 q137 102 228 102q86 0 145.5 -51t59.5 -132q0 -83 -62.5 -136.5t-149.5 -53.5q-96 0 -226 102q-134 -103 -225 -103z"/>
<glyph glyph-name="approxequal" horiz-adv-x="646" unicode="≈" d="M109 304l-62 107q29 38 74 61.5t96 23.5t110 -29t86 -29q60 0 112 63l57 -110q-28 -38 -75.5 -60t-100.5 -22q-51 0 -110 29t-85 29q-28 0 -51 -14t-51 -49zM123 78l-63 108q30 38 74.5 61t95.5 23t110 -29t86 -29q61 0 112 64l57 -110q-28 -38 -75 -60t-101 -22 q-50 0 -109 29t-86 29q-29 0 -51.5 -14t-49.5 -50z"/>
<glyph glyph-name="notequal" horiz-adv-x="679" unicode="≠" d="M229 -43l-99 54l66 109h-135v111h203l32 53h-235v111h303l86 140l99 -55l-54 -85h122v-111h-191l-31 -53h222v-111h-291z"/>
<glyph glyph-name="lessequal" horiz-adv-x="539" unicode="≤" d="M61 -166v116h459v-116h-459zM520 0l-459 200v105l459 200v-140l-302 -112l302 -112v-141z"/>
<glyph glyph-name="greaterequal" horiz-adv-x="580" unicode="≥" d="M61 -166v116h459v-116h-459zM61 0v141l302 112l-302 112v140l459 -200v-105z"/>
<glyph glyph-name="dotmath" horiz-adv-x="270" unicode="⋅" d="M135 196q-41 0 -69 27t-28 67t28 67t69 27t69 -27t28 -67t-28 -67t-69 -27z"/>
<glyph glyph-name="lozenge" horiz-adv-x="735" unicode="◊" d="M380 143l138 197l-144 187l-139 -198zM308 -1l-255 326l253 351h137l256 -330l-252 -347h-139z"/>
</font>
</defs>
</svg>
